<mxfile host="app.diagrams.net" modified="2022-03-16T13:57:05.539Z" agent="5.0 (Windows NT 10.0; Win64; x64) AppleWebKit/537.36 (KHTML, like Gecko) Chrome/99.0.4844.51 Safari/537.36" etag="y-x8GyE3VcAJtocyS2j-" version="17.1.3" type="github">
  <diagram id="m8IT_QaDDyL1cyR7Cor2" name="第 1 页">
    <mxGraphModel dx="1422" dy="794" grid="1" gridSize="10" guides="1" tooltips="1" connect="1" arrows="1" fold="1" page="1" pageScale="1" pageWidth="827" pageHeight="1169" math="0" shadow="0">
      <root>
        <mxCell id="0" />
        <mxCell id="1" parent="0" />
        <mxCell id="e9FAFD_dYdWS4HfwMDyr-12" style="edgeStyle=orthogonalEdgeStyle;rounded=0;orthogonalLoop=1;jettySize=auto;html=1;entryX=0;entryY=0.5;entryDx=0;entryDy=0;endArrow=open;endFill=0;strokeWidth=1;startArrow=diamond;startFill=0;" parent="1" source="e9FAFD_dYdWS4HfwMDyr-2" target="e9FAFD_dYdWS4HfwMDyr-5" edge="1">
          <mxGeometry relative="1" as="geometry" />
        </mxCell>
        <mxCell id="e9FAFD_dYdWS4HfwMDyr-13" style="edgeStyle=orthogonalEdgeStyle;rounded=0;orthogonalLoop=1;jettySize=auto;html=1;entryX=0;entryY=0.5;entryDx=0;entryDy=0;startArrow=diamond;startFill=0;endArrow=open;endFill=0;strokeWidth=1;" parent="1" source="e9FAFD_dYdWS4HfwMDyr-2" target="e9FAFD_dYdWS4HfwMDyr-8" edge="1">
          <mxGeometry relative="1" as="geometry" />
        </mxCell>
        <mxCell id="e9FAFD_dYdWS4HfwMDyr-14" style="edgeStyle=orthogonalEdgeStyle;rounded=0;orthogonalLoop=1;jettySize=auto;html=1;entryX=0;entryY=0.5;entryDx=0;entryDy=0;startArrow=diamond;startFill=0;endArrow=open;endFill=0;strokeWidth=1;" parent="1" source="e9FAFD_dYdWS4HfwMDyr-2" target="e9FAFD_dYdWS4HfwMDyr-6" edge="1">
          <mxGeometry relative="1" as="geometry" />
        </mxCell>
        <mxCell id="e9FAFD_dYdWS4HfwMDyr-15" style="edgeStyle=orthogonalEdgeStyle;rounded=0;orthogonalLoop=1;jettySize=auto;html=1;entryX=0;entryY=0.5;entryDx=0;entryDy=0;startArrow=diamond;startFill=0;endArrow=open;endFill=0;strokeWidth=1;" parent="1" source="e9FAFD_dYdWS4HfwMDyr-2" target="e9FAFD_dYdWS4HfwMDyr-10" edge="1">
          <mxGeometry relative="1" as="geometry" />
        </mxCell>
        <mxCell id="e9FAFD_dYdWS4HfwMDyr-16" style="edgeStyle=orthogonalEdgeStyle;rounded=0;orthogonalLoop=1;jettySize=auto;html=1;entryX=0;entryY=0.5;entryDx=0;entryDy=0;startArrow=diamond;startFill=0;endArrow=open;endFill=0;strokeWidth=1;" parent="1" source="e9FAFD_dYdWS4HfwMDyr-2" target="e9FAFD_dYdWS4HfwMDyr-9" edge="1">
          <mxGeometry relative="1" as="geometry" />
        </mxCell>
        <mxCell id="e9FAFD_dYdWS4HfwMDyr-45" style="edgeStyle=orthogonalEdgeStyle;rounded=0;orthogonalLoop=1;jettySize=auto;html=1;entryX=0;entryY=0.5;entryDx=0;entryDy=0;startArrow=diamond;startFill=0;endArrow=open;endFill=0;strokeWidth=1;" parent="1" source="e9FAFD_dYdWS4HfwMDyr-2" target="e9FAFD_dYdWS4HfwMDyr-7" edge="1">
          <mxGeometry relative="1" as="geometry" />
        </mxCell>
        <mxCell id="e9FAFD_dYdWS4HfwMDyr-2" value="曝光事件" style="sketch=0;pointerEvents=1;shadow=0;dashed=0;html=1;strokeColor=none;fillColor=#434445;aspect=fixed;labelPosition=center;verticalLabelPosition=bottom;verticalAlign=top;align=center;outlineConnect=0;shape=mxgraph.vvd.log_files;" parent="1" vertex="1">
          <mxGeometry x="40" y="580" width="40" height="50" as="geometry" />
        </mxCell>
        <mxCell id="e9FAFD_dYdWS4HfwMDyr-5" value="用户" style="ellipse;whiteSpace=wrap;html=1;strokeColor=default;fillColor=default;" parent="1" vertex="1">
          <mxGeometry x="370" y="510" width="90" height="50" as="geometry" />
        </mxCell>
        <mxCell id="e9FAFD_dYdWS4HfwMDyr-6" value="广告" style="ellipse;whiteSpace=wrap;html=1;strokeColor=default;fillColor=default;" parent="1" vertex="1">
          <mxGeometry x="370" y="790" width="90" height="50" as="geometry" />
        </mxCell>
        <mxCell id="e9FAFD_dYdWS4HfwMDyr-7" value="页面" style="ellipse;whiteSpace=wrap;html=1;strokeColor=default;fillColor=default;" parent="1" vertex="1">
          <mxGeometry x="370" y="650" width="90" height="50" as="geometry" />
        </mxCell>
        <mxCell id="e9FAFD_dYdWS4HfwMDyr-8" value="产品" style="ellipse;whiteSpace=wrap;html=1;strokeColor=default;fillColor=default;" parent="1" vertex="1">
          <mxGeometry x="370" y="860" width="90" height="50" as="geometry" />
        </mxCell>
        <mxCell id="e9FAFD_dYdWS4HfwMDyr-9" value="推荐" style="ellipse;whiteSpace=wrap;html=1;strokeColor=default;fillColor=default;" parent="1" vertex="1">
          <mxGeometry x="370" y="580" width="90" height="50" as="geometry" />
        </mxCell>
        <mxCell id="e9FAFD_dYdWS4HfwMDyr-10" value="搜索" style="ellipse;whiteSpace=wrap;html=1;strokeColor=default;fillColor=default;" parent="1" vertex="1">
          <mxGeometry x="370" y="720" width="90" height="50" as="geometry" />
        </mxCell>
        <mxCell id="e9FAFD_dYdWS4HfwMDyr-22" style="edgeStyle=orthogonalEdgeStyle;rounded=0;orthogonalLoop=1;jettySize=auto;html=1;startArrow=diamond;startFill=0;endArrow=open;endFill=0;strokeWidth=1;entryX=0;entryY=0.5;entryDx=0;entryDy=0;" parent="1" source="e9FAFD_dYdWS4HfwMDyr-20" target="e9FAFD_dYdWS4HfwMDyr-5" edge="1">
          <mxGeometry relative="1" as="geometry">
            <mxPoint x="140" y="530" as="targetPoint" />
          </mxGeometry>
        </mxCell>
        <mxCell id="e9FAFD_dYdWS4HfwMDyr-20" value="点击事件" style="sketch=0;pointerEvents=1;shadow=0;dashed=0;html=1;strokeColor=none;fillColor=#434445;aspect=fixed;labelPosition=center;verticalLabelPosition=bottom;verticalAlign=top;align=center;outlineConnect=0;shape=mxgraph.vvd.log_files;" parent="1" vertex="1">
          <mxGeometry x="40" y="720" width="40" height="50" as="geometry" />
        </mxCell>
        <mxCell id="e9FAFD_dYdWS4HfwMDyr-23" value="1" style="text;html=1;align=center;verticalAlign=middle;resizable=0;points=[];autosize=1;strokeColor=none;fillColor=none;" parent="1" vertex="1">
          <mxGeometry x="90" y="590" width="20" height="20" as="geometry" />
        </mxCell>
        <mxCell id="e9FAFD_dYdWS4HfwMDyr-24" value="1" style="text;html=1;align=center;verticalAlign=middle;resizable=0;points=[];autosize=1;strokeColor=none;fillColor=none;" parent="1" vertex="1">
          <mxGeometry x="90" y="730" width="20" height="20" as="geometry" />
        </mxCell>
        <mxCell id="e9FAFD_dYdWS4HfwMDyr-25" value="n" style="text;html=1;align=center;verticalAlign=middle;resizable=0;points=[];autosize=1;strokeColor=none;fillColor=none;" parent="1" vertex="1">
          <mxGeometry x="340" y="870" width="20" height="20" as="geometry" />
        </mxCell>
        <mxCell id="e9FAFD_dYdWS4HfwMDyr-26" value="n" style="text;html=1;align=center;verticalAlign=middle;resizable=0;points=[];autosize=1;strokeColor=none;fillColor=none;" parent="1" vertex="1">
          <mxGeometry x="340" y="800" width="20" height="20" as="geometry" />
        </mxCell>
        <mxCell id="e9FAFD_dYdWS4HfwMDyr-27" value="n" style="text;html=1;align=center;verticalAlign=middle;resizable=0;points=[];autosize=1;strokeColor=none;fillColor=none;" parent="1" vertex="1">
          <mxGeometry x="340" y="730" width="20" height="20" as="geometry" />
        </mxCell>
        <mxCell id="e9FAFD_dYdWS4HfwMDyr-34" style="edgeStyle=orthogonalEdgeStyle;rounded=0;orthogonalLoop=1;jettySize=auto;html=1;entryX=1;entryY=0.5;entryDx=0;entryDy=0;startArrow=diamond;startFill=0;endArrow=open;endFill=0;strokeWidth=1;" parent="1" source="e9FAFD_dYdWS4HfwMDyr-30" target="e9FAFD_dYdWS4HfwMDyr-5" edge="1">
          <mxGeometry relative="1" as="geometry" />
        </mxCell>
        <mxCell id="e9FAFD_dYdWS4HfwMDyr-35" style="edgeStyle=orthogonalEdgeStyle;rounded=0;orthogonalLoop=1;jettySize=auto;html=1;entryX=1;entryY=0.5;entryDx=0;entryDy=0;startArrow=diamond;startFill=0;endArrow=open;endFill=0;strokeWidth=1;" parent="1" source="e9FAFD_dYdWS4HfwMDyr-30" target="e9FAFD_dYdWS4HfwMDyr-8" edge="1">
          <mxGeometry relative="1" as="geometry" />
        </mxCell>
        <mxCell id="e9FAFD_dYdWS4HfwMDyr-36" style="edgeStyle=orthogonalEdgeStyle;rounded=0;orthogonalLoop=1;jettySize=auto;html=1;entryX=1;entryY=0.5;entryDx=0;entryDy=0;startArrow=diamond;startFill=0;endArrow=open;endFill=0;strokeWidth=1;" parent="1" source="e9FAFD_dYdWS4HfwMDyr-30" target="e9FAFD_dYdWS4HfwMDyr-6" edge="1">
          <mxGeometry relative="1" as="geometry" />
        </mxCell>
        <mxCell id="e9FAFD_dYdWS4HfwMDyr-39" style="edgeStyle=orthogonalEdgeStyle;rounded=0;orthogonalLoop=1;jettySize=auto;html=1;entryX=1;entryY=0.5;entryDx=0;entryDy=0;startArrow=diamond;startFill=0;endArrow=open;endFill=0;strokeWidth=1;" parent="1" source="e9FAFD_dYdWS4HfwMDyr-30" target="e9FAFD_dYdWS4HfwMDyr-7" edge="1">
          <mxGeometry relative="1" as="geometry" />
        </mxCell>
        <mxCell id="e9FAFD_dYdWS4HfwMDyr-40" style="edgeStyle=orthogonalEdgeStyle;rounded=0;orthogonalLoop=1;jettySize=auto;html=1;entryX=1;entryY=0.5;entryDx=0;entryDy=0;startArrow=diamond;startFill=0;endArrow=open;endFill=0;strokeWidth=1;" parent="1" source="e9FAFD_dYdWS4HfwMDyr-30" target="e9FAFD_dYdWS4HfwMDyr-10" edge="1">
          <mxGeometry relative="1" as="geometry" />
        </mxCell>
        <mxCell id="e9FAFD_dYdWS4HfwMDyr-41" style="edgeStyle=orthogonalEdgeStyle;rounded=0;orthogonalLoop=1;jettySize=auto;html=1;entryX=1;entryY=0.5;entryDx=0;entryDy=0;startArrow=diamond;startFill=0;endArrow=open;endFill=0;strokeWidth=1;" parent="1" source="e9FAFD_dYdWS4HfwMDyr-30" target="e9FAFD_dYdWS4HfwMDyr-9" edge="1">
          <mxGeometry relative="1" as="geometry" />
        </mxCell>
        <mxCell id="e9FAFD_dYdWS4HfwMDyr-30" value="web浏览事件" style="sketch=0;pointerEvents=1;shadow=0;dashed=0;html=1;strokeColor=none;fillColor=#434445;aspect=fixed;labelPosition=center;verticalLabelPosition=bottom;verticalAlign=top;align=center;outlineConnect=0;shape=mxgraph.vvd.log_files;" parent="1" vertex="1">
          <mxGeometry x="740" y="580" width="40" height="50" as="geometry" />
        </mxCell>
        <mxCell id="e9FAFD_dYdWS4HfwMDyr-42" style="edgeStyle=orthogonalEdgeStyle;rounded=0;orthogonalLoop=1;jettySize=auto;html=1;entryX=1;entryY=0.5;entryDx=0;entryDy=0;startArrow=diamond;startFill=0;endArrow=open;endFill=0;strokeWidth=1;" parent="1" source="e9FAFD_dYdWS4HfwMDyr-33" target="e9FAFD_dYdWS4HfwMDyr-9" edge="1">
          <mxGeometry relative="1" as="geometry" />
        </mxCell>
        <mxCell id="PhJHWWDFM6LtoZJIVQMm-1" style="edgeStyle=orthogonalEdgeStyle;rounded=0;orthogonalLoop=1;jettySize=auto;html=1;entryX=1;entryY=0.5;entryDx=0;entryDy=0;fontColor=#000000;startArrow=diamond;startFill=0;endArrow=open;endFill=0;startSize=6;endSize=6;strokeColor=#000000;strokeWidth=1;" edge="1" parent="1" source="e9FAFD_dYdWS4HfwMDyr-33" target="e9FAFD_dYdWS4HfwMDyr-38">
          <mxGeometry relative="1" as="geometry">
            <Array as="points">
              <mxPoint x="840" y="745" />
              <mxPoint x="840" y="445" />
            </Array>
          </mxGeometry>
        </mxCell>
        <mxCell id="e9FAFD_dYdWS4HfwMDyr-33" value="app浏览事件" style="sketch=0;pointerEvents=1;shadow=0;dashed=0;html=1;strokeColor=none;fillColor=#434445;aspect=fixed;labelPosition=center;verticalLabelPosition=bottom;verticalAlign=top;align=center;outlineConnect=0;shape=mxgraph.vvd.log_files;" parent="1" vertex="1">
          <mxGeometry x="740" y="720" width="40" height="50" as="geometry" />
        </mxCell>
        <mxCell id="e9FAFD_dYdWS4HfwMDyr-38" value="设备" style="ellipse;whiteSpace=wrap;html=1;strokeColor=default;fillColor=default;" parent="1" vertex="1">
          <mxGeometry x="370" y="420" width="90" height="50" as="geometry" />
        </mxCell>
        <mxCell id="e9FAFD_dYdWS4HfwMDyr-83" style="edgeStyle=orthogonalEdgeStyle;rounded=0;orthogonalLoop=1;jettySize=auto;html=1;entryX=0;entryY=0.5;entryDx=0;entryDy=0;fontColor=#000000;startArrow=diamond;startFill=0;endArrow=open;endFill=0;startSize=6;endSize=6;strokeColor=#000000;strokeWidth=1;" parent="1" source="e9FAFD_dYdWS4HfwMDyr-47" target="e9FAFD_dYdWS4HfwMDyr-82" edge="1">
          <mxGeometry relative="1" as="geometry" />
        </mxCell>
        <mxCell id="e9FAFD_dYdWS4HfwMDyr-84" style="edgeStyle=orthogonalEdgeStyle;rounded=0;orthogonalLoop=1;jettySize=auto;html=1;entryX=0;entryY=0.5;entryDx=0;entryDy=0;fontColor=#000000;startArrow=diamond;startFill=0;endArrow=open;endFill=0;startSize=6;endSize=6;strokeColor=#000000;strokeWidth=1;" parent="1" source="e9FAFD_dYdWS4HfwMDyr-47" target="e9FAFD_dYdWS4HfwMDyr-38" edge="1">
          <mxGeometry relative="1" as="geometry" />
        </mxCell>
        <mxCell id="e9FAFD_dYdWS4HfwMDyr-47" value="会话事件" style="sketch=0;pointerEvents=1;shadow=0;dashed=0;html=1;strokeColor=none;fillColor=#434445;aspect=fixed;labelPosition=center;verticalLabelPosition=bottom;verticalAlign=top;align=center;outlineConnect=0;shape=mxgraph.vvd.log_files;" parent="1" vertex="1">
          <mxGeometry x="40" y="350" width="40" height="50" as="geometry" />
        </mxCell>
        <mxCell id="e9FAFD_dYdWS4HfwMDyr-53" value="&lt;font color=&quot;#000000&quot;&gt;1&lt;/font&gt;" style="text;html=1;align=center;verticalAlign=middle;resizable=0;points=[];autosize=1;strokeColor=none;fillColor=none;fontColor=#3399FF;" parent="1" vertex="1">
          <mxGeometry x="470" y="590" width="20" height="20" as="geometry" />
        </mxCell>
        <mxCell id="e9FAFD_dYdWS4HfwMDyr-54" value="&lt;font color=&quot;#000000&quot;&gt;1&lt;/font&gt;" style="text;html=1;align=center;verticalAlign=middle;resizable=0;points=[];autosize=1;strokeColor=none;fillColor=none;fontColor=#3399FF;" parent="1" vertex="1">
          <mxGeometry x="470" y="520" width="20" height="20" as="geometry" />
        </mxCell>
        <mxCell id="e9FAFD_dYdWS4HfwMDyr-55" value="&lt;font color=&quot;#000000&quot;&gt;1&lt;/font&gt;" style="text;html=1;align=center;verticalAlign=middle;resizable=0;points=[];autosize=1;strokeColor=none;fillColor=none;fontColor=#3399FF;" parent="1" vertex="1">
          <mxGeometry x="470" y="660" width="20" height="20" as="geometry" />
        </mxCell>
        <mxCell id="e9FAFD_dYdWS4HfwMDyr-56" value="&lt;font color=&quot;#000000&quot;&gt;1&lt;/font&gt;" style="text;html=1;align=center;verticalAlign=middle;resizable=0;points=[];autosize=1;strokeColor=none;fillColor=none;fontColor=#3399FF;" parent="1" vertex="1">
          <mxGeometry x="470" y="730" width="20" height="20" as="geometry" />
        </mxCell>
        <mxCell id="e9FAFD_dYdWS4HfwMDyr-57" value="&lt;font color=&quot;#000000&quot;&gt;1&lt;/font&gt;" style="text;html=1;align=center;verticalAlign=middle;resizable=0;points=[];autosize=1;strokeColor=none;fillColor=none;fontColor=#3399FF;" parent="1" vertex="1">
          <mxGeometry x="470" y="800" width="20" height="20" as="geometry" />
        </mxCell>
        <mxCell id="e9FAFD_dYdWS4HfwMDyr-59" value="&lt;font color=&quot;#000000&quot;&gt;1&lt;/font&gt;" style="text;html=1;align=center;verticalAlign=middle;resizable=0;points=[];autosize=1;strokeColor=none;fillColor=none;fontColor=#3399FF;" parent="1" vertex="1">
          <mxGeometry x="470" y="870" width="20" height="20" as="geometry" />
        </mxCell>
        <mxCell id="e9FAFD_dYdWS4HfwMDyr-64" value="&lt;font color=&quot;#000000&quot;&gt;1&lt;/font&gt;" style="text;html=1;align=center;verticalAlign=middle;resizable=0;points=[];autosize=1;strokeColor=none;fillColor=none;fontColor=#3399FF;" parent="1" vertex="1">
          <mxGeometry x="340" y="520" width="20" height="20" as="geometry" />
        </mxCell>
        <mxCell id="e9FAFD_dYdWS4HfwMDyr-66" value="&lt;font color=&quot;#000000&quot;&gt;1&lt;/font&gt;" style="text;html=1;align=center;verticalAlign=middle;resizable=0;points=[];autosize=1;strokeColor=none;fillColor=none;fontColor=#3399FF;" parent="1" vertex="1">
          <mxGeometry x="340" y="660" width="20" height="20" as="geometry" />
        </mxCell>
        <mxCell id="e9FAFD_dYdWS4HfwMDyr-68" value="&lt;font color=&quot;#000000&quot;&gt;1&lt;/font&gt;" style="text;html=1;align=center;verticalAlign=middle;resizable=0;points=[];autosize=1;strokeColor=none;fillColor=none;fontColor=#3399FF;" parent="1" vertex="1">
          <mxGeometry x="340" y="590" width="20" height="20" as="geometry" />
        </mxCell>
        <mxCell id="e9FAFD_dYdWS4HfwMDyr-72" value="1" style="text;html=1;align=center;verticalAlign=middle;resizable=0;points=[];autosize=1;strokeColor=none;fillColor=none;" parent="1" vertex="1">
          <mxGeometry x="710" y="590" width="20" height="20" as="geometry" />
        </mxCell>
        <mxCell id="e9FAFD_dYdWS4HfwMDyr-73" value="1" style="text;html=1;align=center;verticalAlign=middle;resizable=0;points=[];autosize=1;strokeColor=none;fillColor=none;" parent="1" vertex="1">
          <mxGeometry x="710" y="730" width="20" height="20" as="geometry" />
        </mxCell>
        <mxCell id="e9FAFD_dYdWS4HfwMDyr-78" value="1" style="text;html=1;align=center;verticalAlign=middle;resizable=0;points=[];autosize=1;strokeColor=none;fillColor=none;" parent="1" vertex="1">
          <mxGeometry x="790" y="730" width="20" height="20" as="geometry" />
        </mxCell>
        <mxCell id="e9FAFD_dYdWS4HfwMDyr-82" value="归因" style="ellipse;whiteSpace=wrap;html=1;strokeColor=default;fillColor=default;" parent="1" vertex="1">
          <mxGeometry x="370" y="350" width="90" height="50" as="geometry" />
        </mxCell>
        <mxCell id="e9FAFD_dYdWS4HfwMDyr-88" value="" style="endArrow=open;html=1;rounded=0;fontColor=#000000;startSize=6;endSize=6;strokeColor=#000000;strokeWidth=1;entryX=0;entryY=0;entryDx=0;entryDy=0;startArrow=diamond;startFill=0;endFill=0;" parent="1" source="e9FAFD_dYdWS4HfwMDyr-47" target="e9FAFD_dYdWS4HfwMDyr-5" edge="1">
          <mxGeometry width="50" height="50" relative="1" as="geometry">
            <mxPoint x="280" y="330" as="sourcePoint" />
            <mxPoint x="330" y="280" as="targetPoint" />
            <Array as="points">
              <mxPoint x="150" y="470" />
            </Array>
          </mxGeometry>
        </mxCell>
        <mxCell id="e9FAFD_dYdWS4HfwMDyr-89" value="1" style="text;html=1;align=center;verticalAlign=middle;resizable=0;points=[];autosize=1;strokeColor=none;fillColor=none;" parent="1" vertex="1">
          <mxGeometry x="90" y="360" width="20" height="20" as="geometry" />
        </mxCell>
        <mxCell id="e9FAFD_dYdWS4HfwMDyr-90" value="1" style="text;html=1;align=center;verticalAlign=middle;resizable=0;points=[];autosize=1;strokeColor=none;fillColor=none;" parent="1" vertex="1">
          <mxGeometry x="340" y="360" width="20" height="20" as="geometry" />
        </mxCell>
        <mxCell id="e9FAFD_dYdWS4HfwMDyr-91" value="1" style="text;html=1;align=center;verticalAlign=middle;resizable=0;points=[];autosize=1;strokeColor=none;fillColor=none;" parent="1" vertex="1">
          <mxGeometry x="340" y="430" width="20" height="20" as="geometry" />
        </mxCell>
        <mxCell id="e9FAFD_dYdWS4HfwMDyr-94" value="1" style="text;html=1;align=center;verticalAlign=middle;resizable=0;points=[];autosize=1;strokeColor=none;fillColor=none;" parent="1" vertex="1">
          <mxGeometry x="470" y="430" width="20" height="20" as="geometry" />
        </mxCell>
        <mxCell id="e9FAFD_dYdWS4HfwMDyr-95" value="1" style="text;html=1;align=center;verticalAlign=middle;resizable=0;points=[];autosize=1;strokeColor=none;fillColor=none;" parent="1" vertex="1">
          <mxGeometry x="90" y="400" width="20" height="20" as="geometry" />
        </mxCell>
        <mxCell id="e9FAFD_dYdWS4HfwMDyr-99" value="1" style="text;html=1;align=center;verticalAlign=middle;resizable=0;points=[];autosize=1;strokeColor=none;fillColor=none;" parent="1" vertex="1">
          <mxGeometry x="340" y="495" width="20" height="20" as="geometry" />
        </mxCell>
      </root>
    </mxGraphModel>
  </diagram>
</mxfile>
